<?xml version="1.0" encoding="iso-8859-1"?>
<!-- Generator: Adobe Illustrator 18.1.1, SVG Export Plug-In . SVG Version: 6.00 Build 0)  -->
<svg version="1.1" id="Layer_1" xmlns="http://www.w3.org/2000/svg" xmlns:xlink="http://www.w3.org/1999/xlink" x="0px" y="0px"
	 viewBox="0 0 400 400" style="enable-background:new 0 0 400 400;" xml:space="preserve">
<g>
	
		<image style="overflow:visible;opacity:0.19;" width="1614" height="1460" xlink:href="2D3128FB.png"  transform="matrix(0.24 0 0 0.24 23.1684 35.0827)">
	</image>
	<g>
		<linearGradient id="SVGID_1_" gradientUnits="userSpaceOnUse" x1="35.7644" y1="201.9377" x2="394.908" y2="201.9377">
			<stop  offset="0.1553" style="stop-color:#FFFFFF"/>
			<stop  offset="0.6076" style="stop-color:#FFCD80"/>
			<stop  offset="0.94" style="stop-color:#F26A21"/>
		</linearGradient>
		<path style="fill:url(#SVGID_1_);" d="M394.315,70.935c-0.949-2.457-2.946-4.363-5.445-5.197l-43.599-14.555
			c-4.62-1.545-9.634,0.953-11.178,5.583c-1.545,4.629,0.954,9.633,5.583,11.178l22.333,7.456
			c-24.041,8.717-51.436,20.524-76.182,37.507c-16.747,11.493-31.082,24.575-42.664,38.831
			c-17.741,0.161-36.163,4.109-55.189,11.825c-0.045-28.07-1.39-56.201-4.024-84.032c-0.381-4.033-3.458-7.29-7.463-7.902
			c-4.018-0.616-7.915,1.579-9.48,5.315c-16.121,38.407-35.828,74.771-70.588,80.742c-10.807,1.852-21.23-0.83-29.378-7.557
			c-8.407-6.941-13.363-17.489-13.597-28.939c-0.46-22.581,16.358-47.541,39.12-58.059c15.609-7.213,38.923-6.814,51.38,8.129
			c3.125,3.747,8.699,4.252,12.445,1.127c3.748-3.125,4.253-8.696,1.128-12.444c-18.295-21.938-50.254-23.072-72.366-12.853
			C55.939,60.589,35.175,91.904,35.777,121.55c0.339,16.602,7.634,31.985,20.014,42.206c12.18,10.056,27.665,14.087,43.62,11.345
			c34.213-5.877,55.574-33.835,69.495-60.049c1.057,18.862,1.515,37.792,1.372,56.681c-22.366,11.562-45.532,28.124-69.415,49.66
			c-16.325,14.719-30.539,31.588-41.108,48.784c-17.274,28.116-20.974,51.803-10.997,70.405c7.701,14.359,22,22.419,37.517,22.419
			c6.2,0,12.596-1.286,18.841-3.972c25.43-10.934,43.907-36.806,52.657-51.256c17.498-28.891,27.643-64.574,29.338-103.191
			c0.317-7.23,0.546-14.474,0.689-21.728c14.561-6.591,28.638-10.759,42.209-12.494c-4.786,7.893-8.785,16.053-11.952,24.426
			c-12.009,31.747-8.097,61.605,10.468,79.868c14.795,14.553,34.274,19.471,53.443,13.495c22.157-6.908,40.076-27.388,44.589-50.962
			c6.766-35.348-13.438-69.811-46.999-80.163c-4.766-1.471-9.585-2.634-14.464-3.491c10.321-10.887,21.244-19.545,30.732-26.057
			c22.302-15.305,47.229-26.265,69.523-34.489l-11.497,20.484c-2.389,4.254-0.875,9.64,3.379,12.028
			c1.368,0.768,2.852,1.133,4.317,1.133c3.09,0,6.091-1.625,7.712-4.513l24.515-43.675
			C395.066,76.146,395.264,73.392,394.315,70.935z M169.457,203.807c-1.564,35.664-10.831,68.449-26.796,94.812
			c-7.656,12.64-23.619,35.187-44.525,44.176c-13.465,5.785-27.366,1.443-33.805-10.566c-6.791-12.663-3.264-30.428,10.481-52.801
			c9.697-15.778,22.797-31.308,37.886-44.912c19.74-17.799,38.824-31.965,57.197-42.475
			C169.775,195.967,169.629,199.89,169.457,203.807z M274.351,173.907c24.939,7.694,39.921,33.47,34.85,59.956
			c-3.321,17.356-16.38,32.392-32.492,37.415c-12.93,4.032-25.645,0.759-35.79-9.223c-10.365-10.195-17.47-31.579-6.333-61.02
			c4.402-11.64,10.34-22.08,17.057-31.353C259.401,170.224,266.973,171.631,274.351,173.907z"/>
		<path style="fill:none;stroke:#F26522;stroke-miterlimit:10;" d="M394.315,70.935c-0.949-2.457-2.946-4.363-5.445-5.197
			l-43.599-14.555c-4.62-1.545-9.634,0.953-11.178,5.583c-1.545,4.629,0.954,9.633,5.583,11.178l22.333,7.456
			c-24.041,8.717-51.436,20.524-76.182,37.507c-16.747,11.493-31.082,24.575-42.664,38.831
			c-17.741,0.161-36.163,4.109-55.189,11.825c-0.045-28.07-1.39-56.201-4.024-84.032c-0.381-4.033-3.458-7.29-7.463-7.902
			c-4.018-0.616-7.915,1.579-9.48,5.315c-16.121,38.407-35.828,74.771-70.588,80.742c-10.807,1.852-21.23-0.83-29.378-7.557
			c-8.407-6.941-13.363-17.489-13.597-28.939c-0.46-22.581,16.358-47.541,39.12-58.059c15.609-7.213,38.923-6.814,51.38,8.129
			c3.125,3.747,8.699,4.252,12.445,1.127c3.748-3.125,4.253-8.696,1.128-12.444c-18.295-21.938-50.254-23.072-72.366-12.853
			C55.939,60.589,35.175,91.904,35.777,121.55c0.339,16.602,7.634,31.985,20.014,42.206c12.18,10.056,27.665,14.087,43.62,11.345
			c34.213-5.877,55.574-33.835,69.495-60.049c1.057,18.862,1.515,37.792,1.372,56.681c-22.366,11.562-45.532,28.124-69.415,49.66
			c-16.325,14.719-30.539,31.588-41.108,48.784c-17.274,28.116-20.974,51.803-10.997,70.405c7.701,14.359,22,22.419,37.517,22.419
			c6.2,0,12.596-1.286,18.841-3.972c25.43-10.934,43.907-36.806,52.657-51.256c17.498-28.891,27.643-64.574,29.338-103.191
			c0.317-7.23,0.546-14.474,0.689-21.728c14.561-6.591,28.638-10.759,42.209-12.494c-4.786,7.893-8.785,16.053-11.952,24.426
			c-12.009,31.747-8.097,61.605,10.468,79.868c14.795,14.553,34.274,19.471,53.443,13.495c22.157-6.908,40.076-27.388,44.589-50.962
			c6.766-35.348-13.438-69.811-46.999-80.163c-4.766-1.471-9.585-2.634-14.464-3.491c10.321-10.887,21.244-19.545,30.732-26.057
			c22.302-15.305,47.229-26.265,69.523-34.489l-11.497,20.484c-2.389,4.254-0.875,9.64,3.379,12.028
			c1.368,0.768,2.852,1.133,4.317,1.133c3.09,0,6.091-1.625,7.712-4.513l24.515-43.675
			C395.066,76.146,395.264,73.392,394.315,70.935z M169.457,203.807c-1.564,35.664-10.831,68.449-26.796,94.812
			c-7.656,12.64-23.619,35.187-44.525,44.176c-13.465,5.785-27.366,1.443-33.805-10.566c-6.791-12.663-3.264-30.428,10.481-52.801
			c9.697-15.778,22.797-31.308,37.886-44.912c19.74-17.799,38.824-31.965,57.197-42.475
			C169.775,195.967,169.629,199.89,169.457,203.807z M274.351,173.907c24.939,7.694,39.921,33.47,34.85,59.956
			c-3.321,17.356-16.38,32.392-32.492,37.415c-12.93,4.032-25.645,0.759-35.79-9.223c-10.365-10.195-17.47-31.579-6.333-61.02
			c4.402-11.64,10.34-22.08,17.057-31.353C259.401,170.224,266.973,171.631,274.351,173.907z"/>
	</g>
</g>
</svg>
