<?xml version="1.0" encoding="iso-8859-1"?>
<!-- Generator: Adobe Illustrator 18.1.1, SVG Export Plug-In . SVG Version: 6.00 Build 0)  -->
<svg version="1.1" id="Layer_1" xmlns="http://www.w3.org/2000/svg" xmlns:xlink="http://www.w3.org/1999/xlink" x="0px" y="0px"
	 viewBox="0 0 16 16" style="enable-background:new 0 0 16 16;" xml:space="preserve">
<g>
	
		<image style="overflow:visible;opacity:0.19;" width="167" height="160" xlink:href="229C42A8.png"  transform="matrix(0.24 0 0 0.24 -9.8713 -2.8824)">
	</image>
	<g>
		<linearGradient id="SVGID_1_" gradientUnits="userSpaceOnUse" x1="2.2747" y1="8" x2="14.9133" y2="8">
			<stop  offset="0.1553" style="stop-color:#FFFFFF"/>
			<stop  offset="0.6076" style="stop-color:#FFCD80"/>
			<stop  offset="0.94" style="stop-color:#F26A21"/>
		</linearGradient>
		<path style="fill:url(#SVGID_1_);" d="M14.892,3.494c-0.033-0.085-0.104-0.15-0.192-0.179l-1.534-0.501
			c-0.163-0.053-0.339,0.033-0.393,0.192c-0.054,0.159,0.034,0.331,0.196,0.385l0.786,0.256c-0.846,0.3-1.81,0.706-2.681,1.29
			c-0.589,0.395-1.094,0.845-1.501,1.336C8.949,6.279,8.301,6.415,7.631,6.68C7.63,5.714,7.582,4.747,7.49,3.789
			C7.476,3.651,7.368,3.539,7.227,3.518C7.086,3.496,6.948,3.572,6.893,3.7C6.326,5.021,5.632,6.272,4.409,6.478
			c-0.38,0.064-0.747-0.029-1.034-0.26C3.08,5.979,2.905,5.616,2.897,5.222C2.881,4.446,3.473,3.587,4.274,3.225
			c0.549-0.248,1.37-0.234,1.808,0.28c0.11,0.129,0.306,0.146,0.438,0.039c0.132-0.107,0.15-0.299,0.04-0.428
			C5.916,2.361,4.791,2.322,4.013,2.673C2.985,3.138,2.254,4.215,2.275,5.235c0.012,0.571,0.269,1.1,0.704,1.452
			c0.429,0.346,0.974,0.485,1.535,0.39C5.718,6.875,6.47,5.913,6.96,5.011c0.037,0.649,0.053,1.3,0.048,1.95
			C6.221,7.359,5.406,7.928,4.566,8.669c-0.574,0.506-1.075,1.087-1.447,1.678c-0.608,0.967-0.738,1.782-0.387,2.422
			c0.271,0.494,0.774,0.771,1.32,0.771c0.218,0,0.443-0.044,0.663-0.137c0.895-0.376,1.545-1.266,1.853-1.763
			c0.616-0.994,0.973-2.221,1.032-3.55C7.612,7.842,7.62,7.593,7.625,7.344c0.512-0.227,1.008-0.37,1.485-0.43
			C8.942,7.185,8.801,7.466,8.69,7.754c-0.423,1.092-0.285,2.119,0.368,2.747c0.521,0.501,1.206,0.67,1.881,0.464
			c0.78-0.238,1.41-0.942,1.569-1.753c0.238-1.216-0.473-2.401-1.654-2.758c-0.168-0.051-0.337-0.091-0.509-0.12
			c0.363-0.374,0.748-0.672,1.081-0.896c0.785-0.526,1.662-0.904,2.447-1.186l-0.405,0.705c-0.084,0.146-0.031,0.332,0.119,0.414
			c0.048,0.026,0.1,0.039,0.152,0.039c0.109,0,0.214-0.056,0.271-0.155l0.863-1.502C14.919,3.673,14.926,3.578,14.892,3.494z
			 M6.979,8.064c-0.055,1.227-0.381,2.355-0.943,3.261c-0.269,0.435-0.831,1.21-1.567,1.52c-0.474,0.199-0.963,0.05-1.19-0.363
			c-0.239-0.436-0.115-1.047,0.369-1.816c0.341-0.543,0.802-1.077,1.333-1.545c0.695-0.612,1.366-1.1,2.013-1.461
			C6.991,7.795,6.986,7.93,6.979,8.064z M10.671,7.036c0.878,0.265,1.405,1.151,1.226,2.062c-0.117,0.597-0.576,1.114-1.143,1.287
			c-0.455,0.139-0.902,0.026-1.259-0.317C9.13,9.717,8.88,8.982,9.271,7.969c0.155-0.4,0.364-0.76,0.6-1.078
			C10.145,6.909,10.411,6.957,10.671,7.036z"/>
		<path style="fill:none;stroke:#F26522;stroke-width:0.1;stroke-miterlimit:10;" d="M14.892,3.494
			c-0.033-0.085-0.104-0.15-0.192-0.179l-1.534-0.501c-0.163-0.053-0.339,0.033-0.393,0.192c-0.054,0.159,0.034,0.331,0.196,0.385
			l0.786,0.256c-0.846,0.3-1.81,0.706-2.681,1.29c-0.589,0.395-1.094,0.845-1.501,1.336C8.949,6.279,8.301,6.415,7.631,6.68
			C7.63,5.714,7.582,4.747,7.49,3.789C7.476,3.651,7.368,3.539,7.227,3.518C7.086,3.496,6.948,3.572,6.893,3.7
			C6.326,5.021,5.632,6.272,4.409,6.478c-0.38,0.064-0.747-0.029-1.034-0.26C3.08,5.979,2.905,5.616,2.897,5.222
			C2.881,4.446,3.473,3.587,4.274,3.225c0.549-0.248,1.37-0.234,1.808,0.28c0.11,0.129,0.306,0.146,0.438,0.039
			c0.132-0.107,0.15-0.299,0.04-0.428C5.916,2.361,4.791,2.322,4.013,2.673C2.985,3.138,2.254,4.215,2.275,5.235
			c0.012,0.571,0.269,1.1,0.704,1.452c0.429,0.346,0.974,0.485,1.535,0.39C5.718,6.875,6.47,5.913,6.96,5.011
			c0.037,0.649,0.053,1.3,0.048,1.95C6.221,7.359,5.406,7.928,4.566,8.669c-0.574,0.506-1.075,1.087-1.447,1.678
			c-0.608,0.967-0.738,1.782-0.387,2.422c0.271,0.494,0.774,0.771,1.32,0.771c0.218,0,0.443-0.044,0.663-0.137
			c0.895-0.376,1.545-1.266,1.853-1.763c0.616-0.994,0.973-2.221,1.032-3.55C7.612,7.842,7.62,7.593,7.625,7.344
			c0.512-0.227,1.008-0.37,1.485-0.43C8.942,7.185,8.801,7.466,8.69,7.754c-0.423,1.092-0.285,2.119,0.368,2.747
			c0.521,0.501,1.206,0.67,1.881,0.464c0.78-0.238,1.41-0.942,1.569-1.753c0.238-1.216-0.473-2.401-1.654-2.758
			c-0.168-0.051-0.337-0.091-0.509-0.12c0.363-0.374,0.748-0.672,1.081-0.896c0.785-0.526,1.662-0.904,2.447-1.186l-0.405,0.705
			c-0.084,0.146-0.031,0.332,0.119,0.414c0.048,0.026,0.1,0.039,0.152,0.039c0.109,0,0.214-0.056,0.271-0.155l0.863-1.502
			C14.919,3.673,14.926,3.578,14.892,3.494z M6.979,8.064c-0.055,1.227-0.381,2.355-0.943,3.261c-0.269,0.435-0.831,1.21-1.567,1.52
			c-0.474,0.199-0.963,0.05-1.19-0.363c-0.239-0.436-0.115-1.047,0.369-1.816c0.341-0.543,0.802-1.077,1.333-1.545
			c0.695-0.612,1.366-1.1,2.013-1.461C6.991,7.795,6.986,7.93,6.979,8.064z M10.671,7.036c0.878,0.265,1.405,1.151,1.226,2.062
			c-0.117,0.597-0.576,1.114-1.143,1.287c-0.455,0.139-0.902,0.026-1.259-0.317C9.13,9.717,8.88,8.982,9.271,7.969
			c0.155-0.4,0.364-0.76,0.6-1.078C10.145,6.909,10.411,6.957,10.671,7.036z"/>
	</g>
</g>
</svg>
